Coordinates
version=1
nRows=11
nColumns=46
inDegrees=yes

Units are S.I. units (second, meters, Newtons, ...)
Angles are in degrees.

endheader
time	pelvis_tilt	pelvis_list	pelvis_rotation	pelvis_tx	pelvis_ty	pelvis_tz	bb_angle	bb_tx	bb_ty	bb_tz	hip_flexion_r	hip_adduction_r	hip_rotation_r	knee_angle_r	knee_angle_r_beta	ankle_angle_r	subtalar_angle_r	mtp_angle_r	crank_angle_r	hip_flexion_l	hip_adduction_l	hip_rotation_l	knee_angle_l	knee_angle_l_beta	ankle_angle_l	subtalar_angle_l	mtp_angle_l	crank_angle_l	lumbar_extension	lumbar_bending	lumbar_rotation	arm_flex_r	arm_add_r	arm_rot_r	elbow_flex_r	pro_sup_r	wrist_flex_r	wrist_dev_r	arm_flex_l	arm_add_l	arm_rot_l	elbow_flex_l	pro_sup_l	wrist_flex_l	wrist_dev_l
      2.50500000	    -13.29341035	     -9.21806935	     -4.53037488	      0.19058995	      1.04771147	     -0.25572533	      0.00000000	      0.50000000	      0.00000000	      0.25000000	     79.07816163	      5.97847535	      2.51993982	     98.71900166	      1.72297161	     26.90645657	     -2.10521479	      0.00000000	      0.00000000	     43.60589285	    -15.27024525	      0.89625210	     60.28329876	      1.05214205	    -12.92839386	    -11.56492136	      0.00000000	      0.00000000	    -66.63822114	      8.28408063	      9.36950724	     89.42686924	    -11.20246201	     28.78001221	     61.08617332	     38.72285011	      0.00000000	      0.00000000	     82.81336850	    -25.66548813	     27.09173740	     63.27994216	     42.36224447	      0.00000000	      0.00000000
      2.51000000	    -12.89100984	     -8.83593577	     -4.23580126	      0.19030687	      1.04751081	     -0.25501117	      0.00000000	      0.50000000	      0.00000000	      0.25000000	     77.77596721	      5.75886238	      2.72098090	     96.62471735	      1.68641946	     27.60879081	     -2.67042514	      0.00000000	      0.00000000	     43.78408858	    -14.77172543	      1.17040263	     62.44168576	      1.08981301	    -12.25466454	    -12.04750240	      0.00000000	      0.00000000	    -67.01020504	      7.96744178	      8.75777102	     89.40192718	    -11.21243679	     28.64291947	     61.21238134	     38.70747826	      0.00000000	      0.00000000	     82.98262944	    -25.67555763	     26.83730891	     63.49667651	     42.39752254	      0.00000000	      0.00000000
      2.51500000	    -12.37560821	     -8.63247386	     -3.88285050	      0.19002711	      1.04770587	     -0.25409248	      0.00000000	      0.50000000	      0.00000000	      0.25000000	     76.28636611	      5.52244800	      2.61245937	     94.32307188	      1.64624816	     27.83463533	     -3.51176952	      0.00000000	      0.00000000	     43.86483653	    -14.43245329	      1.65339117	     64.56392434	      1.12685306	    -11.33234806	    -11.88005623	      0.00000000	      0.00000000	    -67.72725344	      7.77839263	      7.76294508	     89.37902249	    -10.31552317	     27.90547965	     61.55063648	     38.33785825	      0.00000000	      0.00000000	     82.49259358	    -26.52781410	     25.19575330	     65.57866594	     42.95272551	      0.00000000	      0.00000000
      2.52000000	    -11.94041621	     -8.20116027	     -3.48807207	      0.18954686	      1.04769237	     -0.25336015	      0.00000000	      0.50000000	      0.00000000	      0.25000000	     74.90290319	      5.10982649	      2.67214376	     92.07738604	      1.60705355	     28.11262896	     -4.16626970	      0.00000000	      0.00000000	     44.03915628	    -13.81794208	      2.03095711	     66.67087117	      1.16362622	    -10.49290361	    -12.12240750	      0.00000000	      0.00000000	    -68.14574080	      7.38590535	      7.00274497	     89.35708518	    -10.41728060	     27.71145820	     61.62345022	     38.31315578	      0.00000000	      0.00000000	     82.91821489	    -26.48870731	     24.99395614	     65.78814597	     42.99047318	      0.00000000	      0.00000000
      2.52500000	    -11.41230759	     -7.83683720	     -3.06021955	      0.18918429	      1.04784011	     -0.25232983	      0.00000000	      0.50000000	      0.00000000	      0.25000000	     73.36872642	      4.80005228	      2.87324524	     89.85707996	      1.56830190	     28.16018582	     -4.57242065	      0.00000000	      0.00000000	     44.13834709	    -13.35181764	      2.44080822	     68.78303616	      1.20049045	     -9.29006572	    -11.42567461	      0.00000000	      0.00000000	    -68.72272717	      7.06704279	      6.20183318	     89.31610437	    -10.14104493	     27.04822896	     61.96916995	     38.24900116	      0.00000000	      0.00000000	     83.21795220	    -26.68046027	     24.59877110	     66.41622668	     43.15317472	      0.00000000	      0.00000000
      2.53000000	    -10.99250681	     -7.34862549	     -2.55655660	      0.18876274	      1.04788282	     -0.25141117	      0.00000000	      0.50000000	      0.00000000	      0.25000000	     72.00462755	      4.25204388	      2.97551498	     87.66403543	      1.53002605	     28.11980368	     -4.87681526	      0.00000000	      0.00000000	     44.37000844	    -12.67752818	      2.85559532	     70.85599783	      1.23667046	     -8.37513827	    -11.16029807	      0.00000000	      0.00000000	    -69.12578949	      6.75005969	      5.32006228	     89.28004578	    -10.02262311	     26.71507939	     62.02299148	     38.20895613	      0.00000000	      0.00000000	     83.59980652	    -26.61275745	     24.27717212	     66.76202303	     43.22486002	      0.00000000	      0.00000000
      2.53500000	    -10.61746659	     -6.77950603	     -2.13653308	      0.18834939	      1.04791753	     -0.25032043	      0.00000000	      0.50000000	      0.00000000	      0.25000000	     70.72282227	      3.73571934	      3.21977862	     85.56208089	      1.49334003	     27.84843961	     -4.88284260	      0.00000000	      0.00000000	     44.63400609	    -12.02992807	      3.10277876	     72.94037263	      1.27304966	     -7.21001293	    -10.70281232	      0.00000000	      0.00000000	    -69.47332071	      6.34139149	      4.39010319	     89.23449867	     -9.83506029	     26.28336421	     62.09006467	     38.17019111	      0.00000000	      0.00000000	     83.96340385	    -26.63434137	     23.99712054	     67.11726416	     43.31432716	      0.00000000	      0.00000000
      2.54000000	    -10.35374987	     -6.21001779	     -1.70908891	      0.18778925	      1.04783982	     -0.24907771	      0.00000000	      0.50000000	      0.00000000	      0.25000000	     69.60189242	      3.15414459	      3.39043084	     83.57928521	      1.45873371	     27.31160066	     -4.90969569	      0.00000000	      0.00000000	     45.05436826	    -11.32879919	      3.43077877	     75.00946533	      1.30916214	     -6.25529489	    -10.59527584	      0.00000000	      0.00000000	    -69.68494892	      5.92561646	      3.49045815	     89.18936337	     -9.86500643	     26.10654416	     62.10977258	     38.16010339	      0.00000000	      0.00000000	     84.43125275	    -26.55547310	     23.87117073	     67.31008592	     43.35202588	      0.00000000	      0.00000000
      2.54500000	    -10.14224018	     -5.56753182	     -1.31247428	      0.18728758	      1.04792656	     -0.24787953	      0.00000000	      0.50000000	      0.00000000	      0.25000000	     68.50681296	      2.53525559	      3.63041520	     81.51823607	      1.42276162	     26.63107367	     -4.73216449	      0.00000000	      0.00000000	     45.51028233	    -10.59990941	      3.62617322	     77.01784224	      1.34421493	     -5.26408704	    -10.42243274	      0.00000000	      0.00000000	    -69.81005818	      5.47297089	      2.60132559	     89.13066055	     -9.91472032	     25.94117070	     62.12518165	     38.15380668	      0.00000000	      0.00000000	     84.87918473	    -26.41223909	     23.79607366	     67.44026138	     43.37551575	      0.00000000	      0.00000000
      2.55000000	    -10.00254171	     -4.87774174	     -0.91032371	      0.18676933	      1.04800139	     -0.24658681	      0.00000000	      0.50000000	      0.00000000	      0.25000000	     67.46397726	      1.87142824	      3.90076497	     79.44391717	      1.38655793	     25.80689623	     -4.57432487	      0.00000000	      0.00000000	     46.06758451	     -9.80456500	      3.85567346	     79.02320820	      1.37921517	     -4.19461170	     -9.98999516	      0.00000000	      0.00000000	    -69.92828355	      4.99027080	      1.66780500	     89.08413622	     -9.95557314	     25.73412352	     62.14072689	     38.14864773	      0.00000000	      0.00000000	     85.37079993	    -26.25664119	     23.75149837	     67.52571026	     43.39367744	      0.00000000	      0.00000000
      2.55500000	     -9.90726668	     -4.24247706	     -0.51901964	      0.18626003	      1.04809829	     -0.24519266	      0.00000000	      0.50000000	      0.00000000	      0.25000000	     66.41667883	      1.23727594	      4.08574254	     77.31590637	      1.34941713	     24.83229221	     -4.65217829	      0.00000000	      0.00000000	     46.72725052	     -9.11311940	      4.09216196	     81.06203985	      1.41479949	     -2.86314568	     -8.91314292	      0.00000000	      0.00000000	    -70.00558155	      4.51332489	      0.80024035	     89.01953233	     -9.88930283	     25.28520298	     62.11849441	     38.14630026	      0.00000000	      0.00000000	     85.86978073	    -26.09562989	     23.89025482	     67.40832013	     43.41468121	      0.00000000	      0.00000000
